<mxfile host="Electron" modified="2023-12-03T23:27:31.749Z" agent="Mozilla/5.0 (Macintosh; Intel Mac OS X 10_15_7) AppleWebKit/537.36 (KHTML, like Gecko) draw.io/22.1.2 Chrome/114.0.5735.289 Electron/25.9.4 Safari/537.36" etag="Xv6rbIRhd_6gJraBg5z_" version="22.1.2" type="device">
  <diagram name="Page-1" id="2YBvvXClWsGukQMizWep">
    <mxGraphModel dx="954" dy="618" grid="1" gridSize="10" guides="1" tooltips="1" connect="1" arrows="1" fold="1" page="1" pageScale="1" pageWidth="1100" pageHeight="850" math="0" shadow="0">
      <root>
        <mxCell id="0" />
        <mxCell id="1" parent="0" />
        <mxCell id="CKTXrrg07Ixr_glF1Uce-2" value="&lt;font face=&quot;Courier New&quot;&gt;React U/I&lt;br&gt;&lt;/font&gt;" style="rounded=1;whiteSpace=wrap;html=1;" parent="1" vertex="1">
          <mxGeometry x="270" y="205" width="120" height="60" as="geometry" />
        </mxCell>
        <mxCell id="CKTXrrg07Ixr_glF1Uce-3" value="&lt;font face=&quot;Courier New&quot;&gt;Payment Form&lt;br&gt;&lt;/font&gt;" style="rounded=1;whiteSpace=wrap;html=1;" parent="1" vertex="1">
          <mxGeometry x="480" y="205" width="120" height="60" as="geometry" />
        </mxCell>
        <mxCell id="CKTXrrg07Ixr_glF1Uce-4" value="&lt;font face=&quot;Courier New&quot;&gt;Django Backend Server&lt;br&gt;&lt;/font&gt;" style="rounded=1;whiteSpace=wrap;html=1;" parent="1" vertex="1">
          <mxGeometry x="690" y="205" width="120" height="60" as="geometry" />
        </mxCell>
        <mxCell id="CKTXrrg07Ixr_glF1Uce-5" value="&lt;font face=&quot;Courier New&quot;&gt;Stripe Payment Gateway&lt;br&gt;&lt;/font&gt;" style="rounded=1;whiteSpace=wrap;html=1;" parent="1" vertex="1">
          <mxGeometry x="910" y="205" width="120" height="60" as="geometry" />
        </mxCell>
        <mxCell id="CKTXrrg07Ixr_glF1Uce-7" value="" style="endArrow=none;dashed=1;html=1;rounded=0;" parent="1" edge="1">
          <mxGeometry width="50" height="50" relative="1" as="geometry">
            <mxPoint x="130" y="645" as="sourcePoint" />
            <mxPoint x="130" y="265" as="targetPoint" />
          </mxGeometry>
        </mxCell>
        <mxCell id="CKTXrrg07Ixr_glF1Uce-8" value="" style="endArrow=none;dashed=1;html=1;rounded=0;" parent="1" source="ePL-fA4OplY3XOlCIrPk-3" edge="1">
          <mxGeometry width="50" height="50" relative="1" as="geometry">
            <mxPoint x="329.47" y="645" as="sourcePoint" />
            <mxPoint x="329.47" y="265" as="targetPoint" />
          </mxGeometry>
        </mxCell>
        <mxCell id="CKTXrrg07Ixr_glF1Uce-9" value="" style="endArrow=none;dashed=1;html=1;rounded=0;" parent="1" source="ePL-fA4OplY3XOlCIrPk-5" edge="1">
          <mxGeometry width="50" height="50" relative="1" as="geometry">
            <mxPoint x="539" y="645" as="sourcePoint" />
            <mxPoint x="539" y="265" as="targetPoint" />
          </mxGeometry>
        </mxCell>
        <mxCell id="CKTXrrg07Ixr_glF1Uce-10" value="" style="endArrow=none;dashed=1;html=1;rounded=0;" parent="1" source="ePL-fA4OplY3XOlCIrPk-7" edge="1">
          <mxGeometry width="50" height="50" relative="1" as="geometry">
            <mxPoint x="749.47" y="645" as="sourcePoint" />
            <mxPoint x="749.47" y="265" as="targetPoint" />
          </mxGeometry>
        </mxCell>
        <mxCell id="CKTXrrg07Ixr_glF1Uce-11" value="" style="endArrow=none;dashed=1;html=1;rounded=0;" parent="1" edge="1">
          <mxGeometry width="50" height="50" relative="1" as="geometry">
            <mxPoint x="969.47" y="645" as="sourcePoint" />
            <mxPoint x="969.47" y="265" as="targetPoint" />
          </mxGeometry>
        </mxCell>
        <mxCell id="ePL-fA4OplY3XOlCIrPk-1" value="&lt;div style=&quot;font-size: 16px;&quot;&gt;&lt;span style=&quot;font-family: &amp;quot;Courier New&amp;quot;; background-color: initial;&quot;&gt;&lt;font style=&quot;font-size: 16px;&quot;&gt;&lt;b&gt;Sequence Diagram - Payment&lt;/b&gt;&lt;/font&gt;&lt;/span&gt;&lt;/div&gt;" style="text;html=1;strokeColor=none;fillColor=none;align=left;verticalAlign=middle;whiteSpace=wrap;rounded=0;" parent="1" vertex="1">
          <mxGeometry x="20" y="20" width="290" height="30" as="geometry" />
        </mxCell>
        <mxCell id="ePL-fA4OplY3XOlCIrPk-2" value="" style="endArrow=classic;html=1;rounded=0;entryX=-0.152;entryY=-0.005;entryDx=0;entryDy=0;entryPerimeter=0;" parent="1" target="ePL-fA4OplY3XOlCIrPk-3" edge="1">
          <mxGeometry width="50" height="50" relative="1" as="geometry">
            <mxPoint x="130" y="300" as="sourcePoint" />
            <mxPoint x="310" y="300" as="targetPoint" />
          </mxGeometry>
        </mxCell>
        <mxCell id="ePL-fA4OplY3XOlCIrPk-4" value="" style="endArrow=none;dashed=1;html=1;rounded=0;" parent="1" target="ePL-fA4OplY3XOlCIrPk-3" edge="1">
          <mxGeometry width="50" height="50" relative="1" as="geometry">
            <mxPoint x="330" y="640" as="sourcePoint" />
            <mxPoint x="329.47" y="265" as="targetPoint" />
          </mxGeometry>
        </mxCell>
        <mxCell id="ePL-fA4OplY3XOlCIrPk-3" value="" style="rounded=0;whiteSpace=wrap;html=1;fillColor=#000000;" parent="1" vertex="1">
          <mxGeometry x="320" y="300" width="20" height="40" as="geometry" />
        </mxCell>
        <mxCell id="ePL-fA4OplY3XOlCIrPk-6" value="" style="endArrow=none;dashed=1;html=1;rounded=0;" parent="1" source="ePL-fA4OplY3XOlCIrPk-17" target="ePL-fA4OplY3XOlCIrPk-5" edge="1">
          <mxGeometry width="50" height="50" relative="1" as="geometry">
            <mxPoint x="539" y="645" as="sourcePoint" />
            <mxPoint x="539" y="265" as="targetPoint" />
          </mxGeometry>
        </mxCell>
        <mxCell id="ePL-fA4OplY3XOlCIrPk-5" value="" style="rounded=0;whiteSpace=wrap;html=1;fillColor=#000000;" parent="1" vertex="1">
          <mxGeometry x="530" y="340" width="20" height="40" as="geometry" />
        </mxCell>
        <mxCell id="ePL-fA4OplY3XOlCIrPk-8" value="" style="endArrow=none;dashed=1;html=1;rounded=0;" parent="1" source="ePL-fA4OplY3XOlCIrPk-14" target="ePL-fA4OplY3XOlCIrPk-7" edge="1">
          <mxGeometry width="50" height="50" relative="1" as="geometry">
            <mxPoint x="749.47" y="645" as="sourcePoint" />
            <mxPoint x="749.47" y="265" as="targetPoint" />
          </mxGeometry>
        </mxCell>
        <mxCell id="ePL-fA4OplY3XOlCIrPk-7" value="" style="rounded=0;whiteSpace=wrap;html=1;fillColor=#000000;" parent="1" vertex="1">
          <mxGeometry x="740" y="380" width="20" height="40" as="geometry" />
        </mxCell>
        <mxCell id="ePL-fA4OplY3XOlCIrPk-9" value="" style="rounded=0;whiteSpace=wrap;html=1;fillColor=#000000;" parent="1" vertex="1">
          <mxGeometry x="960" y="420" width="20" height="60" as="geometry" />
        </mxCell>
        <mxCell id="ePL-fA4OplY3XOlCIrPk-10" value="" style="endArrow=classic;html=1;rounded=0;entryX=0;entryY=0;entryDx=0;entryDy=0;" parent="1" target="ePL-fA4OplY3XOlCIrPk-5" edge="1">
          <mxGeometry width="50" height="50" relative="1" as="geometry">
            <mxPoint x="340" y="340" as="sourcePoint" />
            <mxPoint x="527" y="340" as="targetPoint" />
          </mxGeometry>
        </mxCell>
        <mxCell id="ePL-fA4OplY3XOlCIrPk-11" value="" style="endArrow=classic;html=1;rounded=0;entryX=0;entryY=0;entryDx=0;entryDy=0;" parent="1" target="ePL-fA4OplY3XOlCIrPk-7" edge="1">
          <mxGeometry width="50" height="50" relative="1" as="geometry">
            <mxPoint x="550" y="380" as="sourcePoint" />
            <mxPoint x="737" y="380" as="targetPoint" />
          </mxGeometry>
        </mxCell>
        <mxCell id="ePL-fA4OplY3XOlCIrPk-12" value="" style="endArrow=classic;html=1;rounded=0;entryX=0;entryY=0;entryDx=0;entryDy=0;" parent="1" target="ePL-fA4OplY3XOlCIrPk-9" edge="1">
          <mxGeometry width="50" height="50" relative="1" as="geometry">
            <mxPoint x="760" y="420" as="sourcePoint" />
            <mxPoint x="947" y="420" as="targetPoint" />
          </mxGeometry>
        </mxCell>
        <mxCell id="ePL-fA4OplY3XOlCIrPk-13" value="" style="endArrow=classic;html=1;rounded=0;entryX=1;entryY=0;entryDx=0;entryDy=0;dashed=1;" parent="1" target="ePL-fA4OplY3XOlCIrPk-14" edge="1">
          <mxGeometry width="50" height="50" relative="1" as="geometry">
            <mxPoint x="960" y="480" as="sourcePoint" />
            <mxPoint x="773" y="480" as="targetPoint" />
          </mxGeometry>
        </mxCell>
        <mxCell id="ePL-fA4OplY3XOlCIrPk-15" value="" style="endArrow=none;dashed=1;html=1;rounded=0;" parent="1" target="ePL-fA4OplY3XOlCIrPk-14" edge="1">
          <mxGeometry width="50" height="50" relative="1" as="geometry">
            <mxPoint x="749.47" y="645" as="sourcePoint" />
            <mxPoint x="750" y="420" as="targetPoint" />
          </mxGeometry>
        </mxCell>
        <mxCell id="ePL-fA4OplY3XOlCIrPk-14" value="" style="rounded=0;whiteSpace=wrap;html=1;fillColor=#000000;" parent="1" vertex="1">
          <mxGeometry x="740" y="480" width="20" height="40" as="geometry" />
        </mxCell>
        <mxCell id="ePL-fA4OplY3XOlCIrPk-16" value="" style="endArrow=classic;html=1;rounded=0;dashed=1;" parent="1" edge="1">
          <mxGeometry width="50" height="50" relative="1" as="geometry">
            <mxPoint x="740" y="520" as="sourcePoint" />
            <mxPoint x="540" y="520" as="targetPoint" />
          </mxGeometry>
        </mxCell>
        <mxCell id="ePL-fA4OplY3XOlCIrPk-18" value="" style="endArrow=none;dashed=1;html=1;rounded=0;" parent="1" target="ePL-fA4OplY3XOlCIrPk-17" edge="1">
          <mxGeometry width="50" height="50" relative="1" as="geometry">
            <mxPoint x="539" y="645" as="sourcePoint" />
            <mxPoint x="540" y="380" as="targetPoint" />
          </mxGeometry>
        </mxCell>
        <mxCell id="ePL-fA4OplY3XOlCIrPk-17" value="" style="rounded=0;whiteSpace=wrap;html=1;fillColor=#000000;" parent="1" vertex="1">
          <mxGeometry x="530" y="540" width="20" height="20" as="geometry" />
        </mxCell>
        <mxCell id="ePL-fA4OplY3XOlCIrPk-19" value="" style="endArrow=classic;html=1;rounded=0;entryX=0;entryY=0;entryDx=0;entryDy=0;" parent="1" target="ePL-fA4OplY3XOlCIrPk-17" edge="1">
          <mxGeometry width="50" height="50" relative="1" as="geometry">
            <mxPoint x="540" y="520" as="sourcePoint" />
            <mxPoint x="520" y="540" as="targetPoint" />
            <Array as="points">
              <mxPoint x="480" y="520" />
              <mxPoint x="480" y="540" />
            </Array>
          </mxGeometry>
        </mxCell>
        <mxCell id="ePL-fA4OplY3XOlCIrPk-20" value="" style="endArrow=classic;html=1;rounded=0;dashed=1;" parent="1" edge="1">
          <mxGeometry width="50" height="50" relative="1" as="geometry">
            <mxPoint x="530" y="560" as="sourcePoint" />
            <mxPoint x="130" y="560" as="targetPoint" />
          </mxGeometry>
        </mxCell>
        <mxCell id="ePL-fA4OplY3XOlCIrPk-24" value="&lt;font style=&quot;font-size: 8px;&quot; face=&quot;Courier New&quot;&gt;1. User selects flight&lt;/font&gt;" style="text;html=1;strokeColor=none;fillColor=none;align=center;verticalAlign=middle;whiteSpace=wrap;rounded=0;" parent="1" vertex="1">
          <mxGeometry x="130" y="270" width="200" height="30" as="geometry" />
        </mxCell>
        <mxCell id="ePL-fA4OplY3XOlCIrPk-25" value="&lt;font style=&quot;font-size: 8px;&quot; face=&quot;Courier New&quot;&gt;2. Send flight pricing to payment form&lt;/font&gt;" style="text;html=1;strokeColor=none;fillColor=none;align=center;verticalAlign=middle;whiteSpace=wrap;rounded=0;" parent="1" vertex="1">
          <mxGeometry x="340" y="310" width="190" height="30" as="geometry" />
        </mxCell>
        <mxCell id="ePL-fA4OplY3XOlCIrPk-26" value="&lt;font style=&quot;font-size: 8px;&quot; face=&quot;Courier New&quot;&gt;3. POST/ payment process&lt;/font&gt;" style="text;html=1;strokeColor=none;fillColor=none;align=center;verticalAlign=middle;whiteSpace=wrap;rounded=0;" parent="1" vertex="1">
          <mxGeometry x="550" y="350" width="190" height="30" as="geometry" />
        </mxCell>
        <mxCell id="ePL-fA4OplY3XOlCIrPk-27" value="&lt;font style=&quot;font-size: 8px;&quot; face=&quot;Courier New&quot;&gt;4. Create payment intent&lt;/font&gt;" style="text;html=1;strokeColor=none;fillColor=none;align=center;verticalAlign=middle;whiteSpace=wrap;rounded=0;" parent="1" vertex="1">
          <mxGeometry x="760" y="390" width="190" height="30" as="geometry" />
        </mxCell>
        <mxCell id="ePL-fA4OplY3XOlCIrPk-28" value="&lt;font style=&quot;font-size: 8px;&quot; face=&quot;Courier New&quot;&gt;5. Payment result&lt;/font&gt;" style="text;html=1;strokeColor=none;fillColor=none;align=center;verticalAlign=middle;whiteSpace=wrap;rounded=0;" parent="1" vertex="1">
          <mxGeometry x="770" y="450" width="190" height="30" as="geometry" />
        </mxCell>
        <mxCell id="ePL-fA4OplY3XOlCIrPk-29" value="&lt;font style=&quot;font-size: 8px;&quot; face=&quot;Courier New&quot;&gt;6. Payment outcome is confirmed&lt;/font&gt;" style="text;html=1;strokeColor=none;fillColor=none;align=center;verticalAlign=middle;whiteSpace=wrap;rounded=0;" parent="1" vertex="1">
          <mxGeometry x="550" y="490" width="190" height="30" as="geometry" />
        </mxCell>
        <mxCell id="ePL-fA4OplY3XOlCIrPk-30" value="&lt;font style=&quot;font-size: 8px;&quot; face=&quot;Courier New&quot;&gt;7. Display result&lt;/font&gt;" style="text;html=1;strokeColor=none;fillColor=none;align=center;verticalAlign=middle;whiteSpace=wrap;rounded=0;" parent="1" vertex="1">
          <mxGeometry x="390" y="500" width="90" height="30" as="geometry" />
        </mxCell>
        <mxCell id="ePL-fA4OplY3XOlCIrPk-32" value="&lt;font style=&quot;font-size: 8px;&quot; face=&quot;Courier New&quot;&gt;8. Display confirmation of payment outcome to user&lt;/font&gt;" style="text;html=1;strokeColor=none;fillColor=none;align=center;verticalAlign=middle;whiteSpace=wrap;rounded=0;" parent="1" vertex="1">
          <mxGeometry x="140" y="530" width="190" height="30" as="geometry" />
        </mxCell>
        <mxCell id="lXQGcxJoNfHEsUlU2HF_-1" value="Actor" style="shape=umlActor;verticalLabelPosition=bottom;verticalAlign=top;html=1;outlineConnect=0;fontFamily=Courier New;" parent="1" vertex="1">
          <mxGeometry x="110" y="180" width="30" height="60" as="geometry" />
        </mxCell>
      </root>
    </mxGraphModel>
  </diagram>
</mxfile>
